<svg width="30" height="30" viewBox="0 0 30 30" fill="none" xmlns="http://www.w3.org/2000/svg">
<path d="M27.4324 6.0618C26.9824 5.6802 26.2756 5.6256 25.5448 5.919H25.5436C24.775 6.2274 3.78703 15.2298 2.93263 15.5976C2.77723 15.6516 1.42003 16.158 1.55983 17.286C1.68463 18.303 2.77543 18.7242 2.90863 18.7728L8.24443 20.5998C8.59843 21.7782 9.90343 26.1258 10.192 27.0546C10.372 27.6336 10.6654 28.3944 11.1796 28.551C11.6308 28.725 12.0796 28.566 12.37 28.338L15.6322 25.3122L20.8984 29.4192L21.0238 29.4942C21.3814 29.6526 21.724 29.7318 22.051 29.7318C22.3036 29.7318 22.546 29.6844 22.7776 29.5896C23.5666 29.2656 23.8822 28.5138 23.9152 28.4286L27.8488 7.9824C28.0888 6.8904 27.7552 6.3348 27.4324 6.0618ZM12.9502 21.3306L11.1502 26.1306L9.35023 20.1306L23.1502 9.9306L12.9502 21.3306Z" fill="#A8AEC2"/>
</svg>
