<svg width="265" height="67" viewBox="0 0 265 67" fill="none" xmlns="http://www.w3.org/2000/svg">
<path d="M2.81818 7.72727H6.18182L14.0909 27.0455H14.3636L22.2727 7.72727H25.6364V31H23V13.3182H22.7727L15.5 31H12.9545L5.68182 13.3182H5.45455V31H2.81818V7.72727ZM36.0597 31.4091C34.9536 31.4091 33.9498 31.2008 33.0483 30.7841C32.1468 30.3598 31.4309 29.75 30.9006 28.9545C30.3703 28.1515 30.1051 27.1818 30.1051 26.0455C30.1051 25.0455 30.3021 24.2348 30.696 23.6136C31.09 22.9848 31.6165 22.4924 32.2756 22.1364C32.9347 21.7803 33.6619 21.5152 34.4574 21.3409C35.2604 21.1591 36.0672 21.0152 36.8778 20.9091C37.9384 20.7727 38.7983 20.6705 39.4574 20.6023C40.1241 20.5265 40.6089 20.4015 40.9119 20.2273C41.2225 20.053 41.3778 19.75 41.3778 19.3182V19.2273C41.3778 18.1061 41.071 17.2348 40.4574 16.6136C39.8513 15.9924 38.9309 15.6818 37.696 15.6818C36.4157 15.6818 35.4119 15.9621 34.6847 16.5227C33.9574 17.0833 33.446 17.6818 33.1506 18.3182L30.6051 17.4091C31.0597 16.3485 31.6657 15.5227 32.4233 14.9318C33.1884 14.3333 34.0218 13.9167 34.9233 13.6818C35.8324 13.4394 36.7263 13.3182 37.6051 13.3182C38.1657 13.3182 38.8097 13.3864 39.5369 13.5227C40.2718 13.6515 40.9801 13.9205 41.6619 14.3295C42.3513 14.7386 42.9233 15.3561 43.3778 16.1818C43.8324 17.0076 44.0597 18.1136 44.0597 19.5V31H41.3778V28.6364H41.2415C41.0597 29.0152 40.7566 29.4205 40.3324 29.8523C39.9081 30.2841 39.3438 30.6515 38.6392 30.9545C37.9347 31.2576 37.0748 31.4091 36.0597 31.4091ZM36.4688 29C37.5294 29 38.4233 28.7917 39.1506 28.375C39.8854 27.9583 40.4384 27.4205 40.8097 26.7614C41.1884 26.1023 41.3778 25.4091 41.3778 24.6818V22.2273C41.2642 22.3636 41.0142 22.4886 40.6278 22.6023C40.2491 22.7083 39.8097 22.803 39.3097 22.8864C38.8172 22.9621 38.3362 23.0303 37.8665 23.0909C37.4044 23.1439 37.0294 23.1894 36.7415 23.2273C36.0445 23.3182 35.393 23.4659 34.7869 23.6705C34.1884 23.8674 33.7036 24.1667 33.3324 24.5682C32.9688 24.9621 32.7869 25.5 32.7869 26.1818C32.7869 27.1136 33.1316 27.8182 33.821 28.2955C34.518 28.7652 35.4006 29 36.4688 29ZM56 37.9091C54.7045 37.9091 53.5909 37.7424 52.6591 37.4091C51.7273 37.0833 50.9508 36.6515 50.3295 36.1136C49.7159 35.5833 49.2273 35.0152 48.8636 34.4091L51 32.9091C51.2424 33.2273 51.5492 33.5909 51.9205 34C52.2917 34.4167 52.7992 34.7765 53.4432 35.0795C54.0947 35.3902 54.947 35.5455 56 35.5455C57.4091 35.5455 58.572 35.2045 59.4886 34.5227C60.4053 33.8409 60.8636 32.7727 60.8636 31.3182V27.7727H60.6364C60.4394 28.0909 60.1591 28.4848 59.7955 28.9545C59.4394 29.4167 58.9242 29.8295 58.25 30.1932C57.5833 30.5492 56.6818 30.7273 55.5455 30.7273C54.1364 30.7273 52.8712 30.3939 51.75 29.7273C50.6364 29.0606 49.7538 28.0909 49.1023 26.8182C48.4583 25.5455 48.1364 24 48.1364 22.1818C48.1364 20.3939 48.4508 18.8371 49.0795 17.5114C49.7083 16.178 50.5833 15.1477 51.7045 14.4205C52.8258 13.6856 54.1212 13.3182 55.5909 13.3182C56.7273 13.3182 57.6288 13.5076 58.2955 13.8864C58.9697 14.2576 59.4848 14.6818 59.8409 15.1591C60.2045 15.6288 60.4848 16.0152 60.6818 16.3182H60.9545V13.5455H63.5455V31.5C63.5455 33 63.2045 34.2197 62.5227 35.1591C61.8485 36.1061 60.9394 36.7992 59.7955 37.2386C58.6591 37.6856 57.3939 37.9091 56 37.9091ZM55.9091 28.3182C56.9848 28.3182 57.8939 28.072 58.6364 27.5795C59.3788 27.0871 59.9432 26.3788 60.3295 25.4545C60.7159 24.5303 60.9091 23.4242 60.9091 22.1364C60.9091 20.8788 60.7197 19.7689 60.3409 18.8068C59.9621 17.8447 59.4015 17.0909 58.6591 16.5455C57.9167 16 57 15.7273 55.9091 15.7273C54.7727 15.7273 53.8258 16.0152 53.0682 16.5909C52.3182 17.1667 51.7538 17.9394 51.375 18.9091C51.0038 19.8788 50.8182 20.9545 50.8182 22.1364C50.8182 23.3485 51.0076 24.4205 51.3864 25.3523C51.7727 26.2765 52.3409 27.0038 53.0909 27.5341C53.8485 28.0568 54.7879 28.3182 55.9091 28.3182ZM68.4545 31V13.5455H71.1364V31H68.4545ZM69.8182 10.6364C69.2955 10.6364 68.8447 10.4583 68.4659 10.1023C68.0947 9.74621 67.9091 9.31818 67.9091 8.81818C67.9091 8.31818 68.0947 7.89015 68.4659 7.53409C68.8447 7.17803 69.2955 7 69.8182 7C70.3409 7 70.7879 7.17803 71.1591 7.53409C71.5379 7.89015 71.7273 8.31818 71.7273 8.81818C71.7273 9.31818 71.5379 9.74621 71.1591 10.1023C70.7879 10.4583 70.3409 10.6364 69.8182 10.6364ZM83.1392 31.3636C81.5028 31.3636 80.0938 30.9773 78.9119 30.2045C77.7301 29.4318 76.821 28.3674 76.1847 27.0114C75.5483 25.6553 75.2301 24.1061 75.2301 22.3636C75.2301 20.5909 75.5559 19.0265 76.2074 17.6705C76.8665 16.3068 77.7831 15.2424 78.9574 14.4773C80.1392 13.7045 81.518 13.3182 83.0938 13.3182C84.321 13.3182 85.4271 13.5455 86.4119 14C87.3968 14.4545 88.2036 15.0909 88.8324 15.9091C89.4612 16.7273 89.8513 17.6818 90.0028 18.7727H87.321C87.1165 17.9773 86.6619 17.2727 85.9574 16.6591C85.2604 16.0379 84.321 15.7273 83.1392 15.7273C82.0938 15.7273 81.1771 16 80.3892 16.5455C79.6089 17.0833 78.9991 17.8447 78.5597 18.8295C78.1278 19.8068 77.9119 20.9545 77.9119 22.2727C77.9119 23.6212 78.1241 24.7955 78.5483 25.7955C78.9801 26.7955 79.5862 27.572 80.3665 28.125C81.1544 28.678 82.0786 28.9545 83.1392 28.9545C83.8362 28.9545 84.4688 28.8333 85.0369 28.5909C85.6051 28.3485 86.0862 28 86.4801 27.5455C86.8741 27.0909 87.1544 26.5455 87.321 25.9091H90.0028C89.8513 26.9394 89.4763 27.8674 88.8778 28.6932C88.2869 29.5114 87.5028 30.1629 86.5256 30.6477C85.5559 31.125 84.4271 31.3636 83.1392 31.3636ZM122.923 19.3636C122.923 21.8182 122.48 23.9394 121.594 25.7273C120.707 27.5152 119.491 28.8939 117.946 29.8636C116.401 30.8333 114.635 31.3182 112.651 31.3182C110.666 31.3182 108.901 30.8333 107.355 29.8636C105.81 28.8939 104.594 27.5152 103.707 25.7273C102.821 23.9394 102.378 21.8182 102.378 19.3636C102.378 16.9091 102.821 14.7879 103.707 13C104.594 11.2121 105.81 9.83333 107.355 8.86364C108.901 7.89394 110.666 7.40909 112.651 7.40909C114.635 7.40909 116.401 7.89394 117.946 8.86364C119.491 9.83333 120.707 11.2121 121.594 13C122.48 14.7879 122.923 16.9091 122.923 19.3636ZM120.196 19.3636C120.196 17.3485 119.859 15.6477 119.185 14.2614C118.518 12.875 117.613 11.8258 116.469 11.1136C115.332 10.4015 114.06 10.0455 112.651 10.0455C111.241 10.0455 109.965 10.4015 108.821 11.1136C107.685 11.8258 106.779 12.875 106.105 14.2614C105.438 15.6477 105.105 17.3485 105.105 19.3636C105.105 21.3788 105.438 23.0795 106.105 24.4659C106.779 25.8523 107.685 26.9015 108.821 27.6136C109.965 28.3258 111.241 28.6818 112.651 28.6818C114.06 28.6818 115.332 28.3258 116.469 27.6136C117.613 26.9015 118.518 25.8523 119.185 24.4659C119.859 23.0795 120.196 21.3788 120.196 19.3636ZM135.071 13.5455V15.8182H125.662V13.5455H135.071ZM128.48 31V11.1364C128.48 10.1364 128.715 9.30303 129.185 8.63636C129.654 7.9697 130.264 7.4697 131.014 7.13636C131.764 6.80303 132.556 6.63636 133.389 6.63636C134.048 6.63636 134.586 6.68939 135.003 6.79545C135.42 6.90151 135.73 7 135.935 7.09091L135.162 9.40909C135.026 9.36364 134.836 9.30682 134.594 9.23864C134.359 9.17045 134.048 9.13636 133.662 9.13636C132.776 9.13636 132.135 9.35985 131.741 9.80682C131.355 10.2538 131.162 10.9091 131.162 11.7727V31H128.48ZM148.193 31V7.72727H156.33C157.951 7.72727 159.288 8.00758 160.341 8.56818C161.394 9.12121 162.178 9.86742 162.693 10.8068C163.208 11.7386 163.466 12.7727 163.466 13.9091C163.466 14.9091 163.288 15.7348 162.932 16.3864C162.583 17.0379 162.121 17.553 161.545 17.9318C160.977 18.3106 160.36 18.5909 159.693 18.7727V19C160.405 19.0455 161.121 19.2955 161.841 19.75C162.561 20.2045 163.163 20.8561 163.648 21.7045C164.133 22.553 164.375 23.5909 164.375 24.8182C164.375 25.9848 164.11 27.0341 163.58 27.9659C163.049 28.8977 162.212 29.6364 161.068 30.1818C159.924 30.7273 158.436 31 156.602 31H148.193ZM151.011 28.5H156.602C158.443 28.5 159.75 28.1439 160.523 27.4318C161.303 26.7121 161.693 25.8409 161.693 24.8182C161.693 24.0303 161.492 23.303 161.091 22.6364C160.689 21.9621 160.117 21.4242 159.375 21.0227C158.633 20.6136 157.754 20.4091 156.739 20.4091H151.011V28.5ZM151.011 17.9545H156.239C157.087 17.9545 157.852 17.7879 158.534 17.4545C159.223 17.1212 159.769 16.6515 160.17 16.0455C160.58 15.4394 160.784 14.7273 160.784 13.9091C160.784 12.8864 160.428 12.0189 159.716 11.3068C159.004 10.5871 157.875 10.2273 156.33 10.2273H151.011V17.9545ZM175.96 31.3636C174.278 31.3636 172.828 30.9924 171.608 30.25C170.396 29.5 169.46 28.4545 168.801 27.1136C168.15 25.7652 167.824 24.197 167.824 22.4091C167.824 20.6212 168.15 19.0455 168.801 17.6818C169.46 16.3106 170.377 15.2424 171.551 14.4773C172.733 13.7045 174.112 13.3182 175.688 13.3182C176.597 13.3182 177.494 13.4697 178.381 13.7727C179.267 14.0758 180.074 14.5682 180.801 15.25C181.528 15.9242 182.108 16.8182 182.54 17.9318C182.972 19.0455 183.188 20.4167 183.188 22.0455V23.1818H169.733V20.8636H180.46C180.46 19.8788 180.263 19 179.869 18.2273C179.483 17.4545 178.93 16.8447 178.21 16.3977C177.498 15.9508 176.657 15.7273 175.688 15.7273C174.619 15.7273 173.695 15.9924 172.915 16.5227C172.142 17.0455 171.547 17.7273 171.131 18.5682C170.714 19.4091 170.506 20.3106 170.506 21.2727V22.8182C170.506 24.1364 170.733 25.2538 171.188 26.1705C171.65 27.0795 172.29 27.7727 173.108 28.25C173.926 28.7197 174.877 28.9545 175.96 28.9545C176.665 28.9545 177.301 28.8561 177.869 28.6591C178.445 28.4545 178.941 28.1515 179.358 27.75C179.775 27.3409 180.097 26.8333 180.324 26.2273L182.915 26.9545C182.642 27.8333 182.184 28.6061 181.54 29.2727C180.896 29.9318 180.1 30.447 179.153 30.8182C178.206 31.1818 177.142 31.3636 175.96 31.3636ZM192.403 31.4091C191.297 31.4091 190.294 31.2008 189.392 30.7841C188.491 30.3598 187.775 29.75 187.244 28.9545C186.714 28.1515 186.449 27.1818 186.449 26.0455C186.449 25.0455 186.646 24.2348 187.04 23.6136C187.434 22.9848 187.96 22.4924 188.619 22.1364C189.278 21.7803 190.006 21.5152 190.801 21.3409C191.604 21.1591 192.411 21.0152 193.222 20.9091C194.282 20.7727 195.142 20.6705 195.801 20.6023C196.468 20.5265 196.953 20.4015 197.256 20.2273C197.566 20.053 197.722 19.75 197.722 19.3182V19.2273C197.722 18.1061 197.415 17.2348 196.801 16.6136C196.195 15.9924 195.275 15.6818 194.04 15.6818C192.759 15.6818 191.756 15.9621 191.028 16.5227C190.301 17.0833 189.79 17.6818 189.494 18.3182L186.949 17.4091C187.403 16.3485 188.009 15.5227 188.767 14.9318C189.532 14.3333 190.366 13.9167 191.267 13.6818C192.176 13.4394 193.07 13.3182 193.949 13.3182C194.509 13.3182 195.153 13.3864 195.881 13.5227C196.616 13.6515 197.324 13.9205 198.006 14.3295C198.695 14.7386 199.267 15.3561 199.722 16.1818C200.176 17.0076 200.403 18.1136 200.403 19.5V31H197.722V28.6364H197.585C197.403 29.0152 197.1 29.4205 196.676 29.8523C196.252 30.2841 195.688 30.6515 194.983 30.9545C194.278 31.2576 193.419 31.4091 192.403 31.4091ZM192.812 29C193.873 29 194.767 28.7917 195.494 28.375C196.229 27.9583 196.782 27.4205 197.153 26.7614C197.532 26.1023 197.722 25.4091 197.722 24.6818V22.2273C197.608 22.3636 197.358 22.4886 196.972 22.6023C196.593 22.7083 196.153 22.803 195.653 22.8864C195.161 22.9621 194.68 23.0303 194.21 23.0909C193.748 23.1439 193.373 23.1894 193.085 23.2273C192.388 23.3182 191.737 23.4659 191.131 23.6705C190.532 23.8674 190.047 24.1667 189.676 24.5682C189.313 24.9621 189.131 25.5 189.131 26.1818C189.131 27.1136 189.475 27.8182 190.165 28.2955C190.862 28.7652 191.744 29 192.812 29ZM216.298 23.8636V13.5455H218.98V31H216.298V28.0455H216.116C215.707 28.9318 215.071 29.6856 214.207 30.3068C213.344 30.9205 212.253 31.2273 210.935 31.2273C209.844 31.2273 208.874 30.9886 208.026 30.5114C207.177 30.0265 206.51 29.2992 206.026 28.3295C205.541 27.3523 205.298 26.1212 205.298 24.6364V13.5455H207.98V24.4545C207.98 25.7273 208.336 26.7424 209.048 27.5C209.768 28.2576 210.685 28.6364 211.798 28.6364C212.465 28.6364 213.143 28.4659 213.832 28.125C214.529 27.7841 215.113 27.2614 215.582 26.5568C216.06 25.8523 216.298 24.9545 216.298 23.8636ZM231.483 13.5455V15.8182H222.438V13.5455H231.483ZM225.074 9.36364H227.756V26C227.756 26.7576 227.866 27.3258 228.085 27.7045C228.313 28.0758 228.6 28.3258 228.949 28.4545C229.305 28.5758 229.68 28.6364 230.074 28.6364C230.369 28.6364 230.612 28.6212 230.801 28.5909C230.991 28.553 231.142 28.5227 231.256 28.5L231.801 30.9091C231.619 30.9773 231.366 31.0455 231.04 31.1136C230.714 31.1894 230.301 31.2273 229.801 31.2273C229.044 31.2273 228.301 31.0644 227.574 30.7386C226.854 30.4129 226.256 29.9167 225.778 29.25C225.309 28.5833 225.074 27.7424 225.074 26.7273V9.36364ZM237.244 37.5455C236.79 37.5455 236.384 37.5076 236.028 37.4318C235.672 37.3636 235.426 37.2955 235.29 37.2273L235.972 34.8636C236.623 35.0303 237.199 35.0909 237.699 35.0455C238.199 35 238.642 34.7765 239.028 34.375C239.422 33.9811 239.782 33.3409 240.108 32.4545L240.608 31.0909L234.153 13.5455H237.062L241.881 27.4545H242.062L246.881 13.5455H249.79L242.381 33.5455C242.047 34.447 241.634 35.1932 241.142 35.7841C240.65 36.3826 240.078 36.8258 239.426 37.1136C238.782 37.4015 238.055 37.5455 237.244 37.5455Z" fill="black"/>
<path d="M11 60.5C59.3333 46.5 173 26.9 241 60.5" stroke="#626D8E" stroke-width="5"/>
</svg>
