<svg width="30" height="30" viewBox="0 0 30 30" fill="none" xmlns="http://www.w3.org/2000/svg">
<path d="M28.3521 24.1319C27.229 22.1106 24.3359 19.6819 23.1415 18.625C22.8146 18.3356 22.7796 17.835 23.0771 17.515C25.3565 15.0656 27.1796 12.2512 27.8071 10.5506C28.084 9.79937 27.5109 9.00562 26.7034 9.00562H24.3577C23.5846 9.00562 23.1321 9.28312 22.9165 9.725C21.0221 13.6069 19.3971 15.2869 18.2596 16.2688C17.6227 16.8188 16.6296 16.3631 16.6296 15.5263C16.6296 13.9138 16.6296 11.8294 16.6296 10.3512C16.6296 9.63437 16.0434 9.05437 15.3202 9.05437L11.0352 9.00562C10.4959 9.00562 10.1877 9.61625 10.5115 10.0444L11.219 11.06C11.4852 11.4119 11.629 11.84 11.629 12.2794L11.6252 16.8531C11.6252 17.6487 10.6609 18.0375 10.0884 17.48C8.15149 15.5937 6.47086 11.7419 5.86586 9.9C5.69086 9.36687 5.19149 9.00687 4.62524 9.00562L2.31461 9C1.44774 9 0.813985 9.82187 1.04961 10.6494C3.16086 18.06 7.49273 25.11 15.2127 25.8744C15.9734 25.9494 16.6296 25.3369 16.6296 24.5787V22.175C16.6296 21.4856 17.1702 20.8931 17.8652 20.8756C17.8896 20.875 17.914 20.875 17.9384 20.875C19.9802 20.875 22.2671 23.8469 23.0671 25.2369C23.2971 25.6369 23.7271 25.8806 24.1921 25.8806H27.3002C28.2071 25.8806 28.789 24.9187 28.3521 24.1319Z" fill="#A8AEC2"/>
</svg>
